<svg width="221" height="221" viewBox="0 0 221 221" fill="none" xmlns="http://www.w3.org/2000/svg">
<path fill-rule="evenodd" clip-rule="evenodd" d="M12.9211 110.5C12.9211 84.6205 23.2017 59.8009 41.5013 41.5013C59.8009 23.2017 84.6205 12.9211 110.5 12.9211C136.38 12.9211 161.199 23.2017 179.499 41.5013C197.798 59.8009 208.079 84.6205 208.079 110.5C208.079 136.38 197.798 161.199 179.499 179.499C161.199 197.798 136.38 208.079 110.5 208.079C84.6205 208.079 59.8009 197.798 41.5013 179.499C23.2017 161.199 12.9211 136.38 12.9211 110.5ZM110.5 26.9178C94.2995 26.9184 78.4483 31.6271 64.8747 40.4711C51.3012 49.3151 40.5904 61.9132 34.0453 76.7327C27.5003 91.5523 25.4032 107.955 28.009 123.944C30.6149 139.934 37.8114 154.821 48.7231 166.796C55.3476 156.42 64.4807 147.881 75.2783 141.969C86.0759 136.056 98.1896 132.961 110.5 132.968C122.811 132.959 134.925 136.054 145.723 141.967C156.521 147.879 165.653 156.419 172.277 166.796C183.189 154.821 190.385 139.934 192.991 123.944C195.597 107.955 193.5 91.5523 186.955 76.7327C180.41 61.9132 169.699 49.3151 156.125 40.4711C142.552 31.6271 126.701 26.9184 110.5 26.9178ZM161.801 176.491C156.588 167.505 149.104 160.048 140.1 154.866C131.096 149.684 120.889 146.959 110.5 146.965C100.111 146.959 89.9037 149.684 80.8998 154.866C71.896 160.048 64.4122 167.505 59.1985 176.491C73.8547 187.919 91.9149 194.112 110.5 194.082C129.83 194.082 147.628 187.511 161.801 176.491ZM75.8767 95.8403C75.8767 86.6577 79.5245 77.8511 86.0176 71.3579C92.5108 64.8648 101.317 61.217 110.5 61.217C119.683 61.217 128.489 64.8648 134.982 71.3579C141.476 77.8511 145.123 86.6577 145.123 95.8403C145.123 105.023 141.476 113.83 134.982 120.323C128.489 126.816 119.683 130.464 110.5 130.464C101.317 130.464 92.5108 126.816 86.0176 120.323C79.5245 113.83 75.8767 105.023 75.8767 95.8403ZM110.5 75.2137C107.791 75.2137 105.109 75.7472 102.607 76.7838C100.104 77.8204 97.8301 79.3397 95.9147 81.2551C93.9994 83.1704 92.48 85.4443 91.4435 87.9469C90.4069 90.4494 89.8733 93.1316 89.8733 95.8403C89.8733 98.5491 90.4069 101.231 91.4435 103.734C92.48 106.236 93.9994 108.51 95.9147 110.426C97.8301 112.341 100.104 113.86 102.607 114.897C105.109 115.933 107.791 116.467 110.5 116.467C115.971 116.467 121.217 114.294 125.085 110.426C128.954 106.557 131.127 101.311 131.127 95.8403C131.127 90.3698 128.954 85.1233 125.085 81.2551C121.217 77.3868 115.971 75.2137 110.5 75.2137Z" fill="black"/>
</svg>
